<svg width="14" height="14" viewBox="0 0 14 14" fill="none" xmlns="http://www.w3.org/2000/svg">
<path fill-rule="evenodd" clip-rule="evenodd" d="M12.362 3.18788C12.4713 3.29727 12.5328 3.44562 12.5328 3.6003C12.5328 3.75498 12.4713 3.90332 12.362 4.01272L5.80416 10.5711C5.74457 10.6307 5.67382 10.678 5.59595 10.7103C5.51808 10.7426 5.43461 10.7592 5.35032 10.7592C5.26603 10.7592 5.18257 10.7426 5.1047 10.7103C5.02683 10.678 4.95608 10.6307 4.89649 10.5711L1.63799 7.31263C1.58379 7.25843 1.5408 7.19409 1.51147 7.12328C1.48214 7.05247 1.46704 6.97657 1.46704 6.89992C1.46704 6.82328 1.48214 6.74738 1.51147 6.67657C1.5408 6.60575 1.58379 6.54141 1.63799 6.48722C1.69219 6.43302 1.75653 6.39003 1.82734 6.36069C1.89816 6.33136 1.97405 6.31627 2.0507 6.31627C2.12735 6.31627 2.20324 6.33136 2.27405 6.36069C2.34487 6.39003 2.40921 6.43302 2.46341 6.48722L5.35091 9.37471L11.5366 3.18788C11.646 3.07852 11.7943 3.01709 11.949 3.01709C12.1037 3.01709 12.2526 3.07852 12.362 3.18788Z" fill="white"/>
</svg>
