<svg width="15" height="14" viewBox="0 0 15 14" fill="none" xmlns="http://www.w3.org/2000/svg">
<g id="mynaui:undo">
<g id="Group">
<path id="Vector" d="M3.78767 10.7123C4.39816 11.3228 5.14979 11.7733 5.97598 12.0239C6.80217 12.2746 7.67742 12.3176 8.52419 12.1491C9.37097 11.9807 10.1631 11.606 10.8305 11.0583C11.4979 10.5106 12.0199 9.80674 12.3503 9.00909C12.6807 8.21145 12.8093 7.34463 12.7247 6.48543C12.6401 5.62622 12.3448 4.80114 11.8652 4.08328C11.3855 3.36541 10.7362 2.77692 9.97482 2.36993C9.2134 1.96294 8.36336 1.75001 7.5 1.75C5.13283 1.75 3.69783 3.32792 2.25 4.95833" stroke="#757575" stroke-linecap="round" stroke-linejoin="round"/>
<path id="Vector_2" d="M2.25 2.625V4.95833H4.58333" stroke="#757575" stroke-linecap="round" stroke-linejoin="round"/>
</g>
</g>
</svg>
