<svg width="14" height="14" viewBox="0 0 14 14" fill="none" xmlns="http://www.w3.org/2000/svg">
<path d="M8.3 2.77778V3.33333H10.6625C10.752 3.33333 10.8379 3.36845 10.9011 3.43096C10.9644 3.49348 11 3.57826 11 3.66667C11 3.75507 10.9644 3.83986 10.9011 3.90237C10.8379 3.96488 10.752 4 10.6625 4H2.3375C2.24799 4 2.16214 3.96488 2.09885 3.90237C2.03556 3.83986 2 3.75507 2 3.66667C2 3.57826 2.03556 3.49348 2.09885 3.43096C2.16214 3.36845 2.24799 3.33333 2.3375 3.33333H4.7V2.77778C4.7 2.34844 5.0528 2 5.4875 2H7.5125C7.9472 2 8.3 2.34844 8.3 2.77778ZM5.375 2.77778V3.33333H7.625V2.77778C7.625 2.74831 7.61315 2.72005 7.59205 2.69921C7.57095 2.67837 7.54234 2.66667 7.5125 2.66667H5.4875C5.45766 2.66667 5.42905 2.67837 5.40795 2.69921C5.38685 2.72005 5.375 2.74831 5.375 2.77778ZM3.34865 4.74578C3.3448 4.70189 3.33219 4.6592 3.31153 4.62016C3.29088 4.58112 3.26259 4.54651 3.22831 4.51833C3.19403 4.49015 3.15444 4.46896 3.11182 4.45599C3.0692 4.44302 3.0244 4.43851 2.98001 4.44274C2.93561 4.44697 2.89251 4.45985 2.85319 4.48063C2.81386 4.50141 2.7791 4.52968 2.7509 4.56381C2.72271 4.59794 2.70164 4.63725 2.68893 4.67947C2.67621 4.72169 2.67208 4.76598 2.6768 4.80978L3.3122 11.2978C3.3312 11.4901 3.422 11.6685 3.56691 11.7983C3.71182 11.9281 3.90046 12 4.0961 12H8.9039C9.09961 12 9.28831 11.9281 9.43323 11.7982C9.57815 11.6683 9.6689 11.4897 9.6878 11.2973L10.3236 4.80978C10.3322 4.72173 10.3051 4.63391 10.2481 4.56565C10.1911 4.49738 10.1091 4.45426 10.0199 4.44578C9.93075 4.43729 9.84183 4.46413 9.77272 4.52039C9.7036 4.57665 9.65994 4.65773 9.65135 4.74578L9.01595 11.2329C9.01326 11.2604 9.0003 11.2859 8.97958 11.3045C8.95886 11.3231 8.93188 11.3334 8.9039 11.3333H4.0961C4.06812 11.3334 4.04114 11.3231 4.02042 11.3045C3.9997 11.2859 3.98674 11.2604 3.98405 11.2329L3.34865 4.74578Z" fill="#757575"/>
<path d="M5.30306 6.00072C5.34521 5.99839 5.38744 6.00384 5.42733 6.01675C5.46722 6.02967 5.50399 6.04979 5.53555 6.07597C5.5671 6.10216 5.59282 6.13389 5.61123 6.16936C5.62964 6.20482 5.64038 6.24333 5.64284 6.28267L5.85708 9.68213C5.86208 9.76163 5.83304 9.83973 5.77635 9.89924C5.71966 9.95876 5.63996 9.99482 5.55479 9.99948C5.46962 10.0042 5.38595 9.97705 5.32219 9.92413C5.25843 9.87122 5.2198 9.79683 5.2148 9.71733L5.00056 6.31787C4.99807 6.27852 5.00391 6.23911 5.01774 6.20188C5.03157 6.16464 5.05313 6.13032 5.08119 6.10086C5.10924 6.07141 5.14324 6.04741 5.18123 6.03022C5.21923 6.01304 5.26091 6.00301 5.30306 6.00072ZM7.99945 6.31787C8.00445 6.23837 7.97541 6.16027 7.91872 6.10076C7.86203 6.04124 7.78233 6.00518 7.69716 6.00052C7.61199 5.99585 7.52832 6.02295 7.46456 6.07587C7.40079 6.12878 7.36216 6.20317 7.35716 6.28267L7.14293 9.68213C7.13793 9.76158 7.16694 9.83963 7.22359 9.8991C7.28024 9.95858 7.35989 9.99462 7.445 9.99928C7.53012 10.004 7.61373 9.97687 7.67745 9.92399C7.74117 9.87111 7.77978 9.79677 7.78478 9.71733L7.99945 6.31787Z" fill="#757575"/>
</svg>
