<svg width="20" height="20" viewBox="0 0 20 20" fill="none" xmlns="http://www.w3.org/2000/svg">
<path d="M9.99998 14.1667C10.2361 14.1667 10.4341 14.0867 10.5941 13.9267C10.7541 13.7667 10.8339 13.569 10.8333 13.3334V10.0001C10.8333 9.76397 10.7533 9.56619 10.5933 9.40675C10.4333 9.2473 10.2355 9.1673 9.99998 9.16675C9.76442 9.16619 9.56665 9.24619 9.40665 9.40675C9.24665 9.5673 9.16665 9.76508 9.16665 10.0001V13.3334C9.16665 13.5695 9.24665 13.7676 9.40665 13.9276C9.56665 14.0876 9.76442 14.1673 9.99998 14.1667ZM9.99998 7.50008C10.2361 7.50008 10.4341 7.42008 10.5941 7.26008C10.7541 7.10008 10.8339 6.9023 10.8333 6.66675C10.8328 6.43119 10.7528 6.23341 10.5933 6.07341C10.4339 5.91341 10.2361 5.83341 9.99998 5.83341C9.76387 5.83341 9.56609 5.91341 9.40665 6.07341C9.2472 6.23341 9.1672 6.43119 9.16665 6.66675C9.16609 6.9023 9.24609 7.10036 9.40665 7.26091C9.5672 7.42147 9.76498 7.50119 9.99998 7.50008ZM9.99998 18.2501C9.90276 18.2501 9.81248 18.2431 9.72915 18.2292C9.64581 18.2154 9.56248 18.1945 9.47915 18.1667C7.60415 17.5417 6.11109 16.3854 4.99998 14.6976C3.88887 13.0098 3.33331 11.194 3.33331 9.25008V5.31258C3.33331 4.96536 3.43415 4.65286 3.63581 4.37508C3.83748 4.0973 4.09776 3.89591 4.41665 3.77091L9.41665 1.89591C9.61109 1.82647 9.80553 1.79175 9.99998 1.79175C10.1944 1.79175 10.3889 1.82647 10.5833 1.89591L15.5833 3.77091C15.9028 3.89591 16.1633 4.0973 16.365 4.37508C16.5666 4.65286 16.6672 4.96536 16.6666 5.31258V9.25008C16.6666 11.1945 16.1111 13.0106 15 14.6984C13.8889 16.3862 12.3958 17.5423 10.5208 18.1667C10.4375 18.1945 10.3541 18.2154 10.2708 18.2292C10.1875 18.2431 10.0972 18.2501 9.99998 18.2501ZM9.99998 16.5834C11.4444 16.1251 12.6389 15.2084 13.5833 13.8334C14.5278 12.4584 15 10.9306 15 9.25008V5.31258L9.99998 3.43758L4.99998 5.31258V9.25008C4.99998 10.9306 5.4722 12.4584 6.41665 13.8334C7.36109 15.2084 8.55553 16.1251 9.99998 16.5834Z" fill="#757575"/>
</svg>
