<svg width="13" height="14" viewBox="0 0 13 14" fill="none" xmlns="http://www.w3.org/2000/svg">
<path d="M3.5 8.66667H3.2C2.535 8.66667 2 8.07222 2 7.33333V3.33333C2 2.59444 2.535 2 3.2 2H6.8C7.465 2 8 2.59444 8 3.33333V3.66667M6.2 5.33333H9.8C10.1183 5.33333 10.4235 5.47381 10.6485 5.72386C10.8736 5.97391 11 6.31304 11 6.66667V10.6667C11 11.0203 10.8736 11.3594 10.6485 11.6095C10.4235 11.8595 10.1183 12 9.8 12H6.2C5.88174 12 5.57652 11.8595 5.35147 11.6095C5.12643 11.3594 5 11.0203 5 10.6667V6.66667C5 6.49157 5.03104 6.31819 5.09134 6.15642C5.15165 5.99465 5.24004 5.84767 5.35147 5.72386C5.4629 5.60005 5.59519 5.50183 5.74078 5.43483C5.88637 5.36782 6.04241 5.33333 6.2 5.33333Z" stroke="#757575" stroke-width="0.7" stroke-miterlimit="10" stroke-linecap="round" stroke-linejoin="round"/>
</svg>
