<svg width="14" height="14" viewBox="0 0 14 14" fill="none" xmlns="http://www.w3.org/2000/svg">
<path d="M12.2488 5.83341C12.2418 4.56466 12.1858 3.8775 11.7372 3.4295C11.2251 2.91675 10.3997 2.91675 8.75 2.91675H7C5.35033 2.91675 4.52492 2.91675 4.01275 3.4295C3.5 3.94166 3.5 4.76708 3.5 6.41675V9.33342C3.5 10.9831 3.5 11.8085 4.01275 12.3207C4.52492 12.8334 5.35033 12.8334 7 12.8334H8.75C10.3997 12.8334 11.2251 12.8334 11.7372 12.3207C12.25 11.8085 12.25 10.9831 12.25 9.33342V8.75008" stroke="white" stroke-linecap="round"/>
<path d="M1.75 5.83342V9.33342C1.75 9.79754 1.93437 10.2427 2.26256 10.5709C2.59075 10.899 3.03587 11.0834 3.5 11.0834M10.5 2.91675C10.5 2.45262 10.3156 2.0075 9.98744 1.67931C9.65925 1.35112 9.21413 1.16675 8.75 1.16675H6.41667C4.21692 1.16675 3.11675 1.16675 2.43367 1.85041C2.05217 2.23133 1.88358 2.74175 1.8095 3.50008" stroke="white" stroke-linecap="round"/>
</svg>
