<svg width="16" height="16" viewBox="0 0 16 16" fill="none" xmlns="http://www.w3.org/2000/svg">
<g id="stash:question-light">
<path id="Vector" d="M8.00029 5.33319C7.68199 5.33319 7.37672 5.4536 7.15164 5.66793C6.92656 5.88226 6.80012 6.17295 6.80012 6.47605V6.55758C6.80012 6.65861 6.75797 6.75551 6.68294 6.82695C6.60792 6.89839 6.50616 6.93853 6.40006 6.93853C6.29396 6.93853 6.1922 6.89839 6.11717 6.82695C6.04215 6.75551 6 6.65861 6 6.55758V6.47605C6 5.97088 6.21074 5.48639 6.58587 5.12918C6.961 4.77197 7.46978 4.57129 8.00029 4.57129H8.09311C8.48269 4.5714 8.86289 4.68511 9.18259 4.89711C9.50229 5.10911 9.74616 5.40925 9.88139 5.75716C10.0166 6.10507 10.0367 6.48407 9.93904 6.84319C9.84134 7.20231 9.63051 7.52433 9.33489 7.76596L8.718 8.26957C8.61852 8.35098 8.53864 8.45186 8.48383 8.56533C8.42901 8.6788 8.40054 8.8022 8.40035 8.9271V9.33319C8.40035 9.43423 8.3582 9.53113 8.28318 9.60257C8.20815 9.67401 8.10639 9.71415 8.00029 9.71415C7.89419 9.71415 7.79243 9.67401 7.71741 9.60257C7.64238 9.53113 7.60023 9.43423 7.60023 9.33319V8.9271C7.60023 8.45167 7.81867 8.00062 8.19712 7.69129L8.81321 7.18843C8.98502 7.04826 9.10762 6.86133 9.16451 6.65281C9.2214 6.44429 9.20985 6.22418 9.13141 6.0221C9.05297 5.82002 8.91141 5.64566 8.72578 5.5225C8.54015 5.39933 8.31935 5.33327 8.09311 5.33319H8.00029ZM8.00029 11.4284C8.15945 11.4284 8.31208 11.3682 8.42462 11.2611C8.53716 11.1539 8.60038 11.0086 8.60038 10.857C8.60038 10.7055 8.53716 10.5601 8.42462 10.4529C8.31208 10.3458 8.15945 10.2856 8.00029 10.2856C7.84114 10.2856 7.6885 10.3458 7.57597 10.4529C7.46343 10.5601 7.4002 10.7055 7.4002 10.857C7.4002 11.0086 7.46343 11.1539 7.57597 11.2611C7.6885 11.3682 7.84114 11.4284 8.00029 11.4284Z" fill="black"/>
<path id="Vector_2" d="M1 8C1 6.14348 1.7375 4.36301 3.05025 3.05025C4.36301 1.7375 6.14348 1 8 1C9.85652 1 11.637 1.7375 12.9497 3.05025C14.2625 4.36301 15 6.14348 15 8C15 9.85652 14.2625 11.637 12.9497 12.9497C11.637 14.2625 9.85652 15 8 15C6.14348 15 4.36301 14.2625 3.05025 12.9497C1.7375 11.637 1 9.85652 1 8ZM8 1.82353C6.3619 1.82353 4.79089 2.47426 3.63258 3.63258C2.47426 4.79089 1.82353 6.3619 1.82353 8C1.82353 9.6381 2.47426 11.2091 3.63258 12.3674C4.79089 13.5257 6.3619 14.1765 8 14.1765C9.6381 14.1765 11.2091 13.5257 12.3674 12.3674C13.5257 11.2091 14.1765 9.6381 14.1765 8C14.1765 6.3619 13.5257 4.79089 12.3674 3.63258C11.2091 2.47426 9.6381 1.82353 8 1.82353Z" fill="black"/>
</g>
</svg>
