<svg width="18" height="18" viewBox="0 0 18 18" fill="none" xmlns="http://www.w3.org/2000/svg">
<g id="ic:round-clear">
<path id="Vector" d="M13.725 4.28267C13.6556 4.21314 13.5732 4.15798 13.4825 4.12034C13.3917 4.08271 13.2945 4.06333 13.1962 4.06333C13.098 4.06333 13.0007 4.08271 12.91 4.12034C12.8193 4.15798 12.7369 4.21314 12.6675 4.28267L8.99998 7.94267L5.33248 4.27517C5.26305 4.20573 5.18062 4.15065 5.08989 4.11307C4.99917 4.07549 4.90193 4.05615 4.80373 4.05615C4.70554 4.05615 4.6083 4.07549 4.51758 4.11307C4.42685 4.15065 4.34442 4.20573 4.27498 4.27517C4.20555 4.3446 4.15047 4.42704 4.11289 4.51776C4.07531 4.60848 4.05597 4.70572 4.05597 4.80392C4.05597 4.90212 4.07531 4.99935 4.11289 5.09008C4.15047 5.1808 4.20555 5.26323 4.27498 5.33267L7.94248 9.00017L4.27498 12.6677C4.20555 12.7371 4.15047 12.8195 4.11289 12.9103C4.07531 13.001 4.05597 13.0982 4.05597 13.1964C4.05597 13.2946 4.07531 13.3919 4.11289 13.4826C4.15047 13.5733 4.20555 13.6557 4.27498 13.7252C4.34442 13.7946 4.42685 13.8497 4.51758 13.8873C4.6083 13.9248 4.70554 13.9442 4.80373 13.9442C4.90193 13.9442 4.99917 13.9248 5.08989 13.8873C5.18062 13.8497 5.26305 13.7946 5.33248 13.7252L8.99998 10.0577L12.6675 13.7252C12.7369 13.7946 12.8194 13.8497 12.9101 13.8873C13.0008 13.9248 13.098 13.9442 13.1962 13.9442C13.2944 13.9442 13.3917 13.9248 13.4824 13.8873C13.5731 13.8497 13.6555 13.7946 13.725 13.7252C13.7944 13.6557 13.8495 13.5733 13.8871 13.4826C13.9247 13.3919 13.944 13.2946 13.944 13.1964C13.944 13.0982 13.9247 13.001 13.8871 12.9103C13.8495 12.8195 13.7944 12.7371 13.725 12.6677L10.0575 9.00017L13.725 5.33267C14.01 5.04767 14.01 4.56767 13.725 4.28267Z" fill="black"/>
</g>
</svg>
